PathFileType	4	(X/Y/Z)	Run_500 04
DataRate	CameraRate	NumFrames	NumMarkers	Units	OrigDataRate	OrigDataStartFrame	OrigNumFrames
100	100	4	41	mm	100	344	125
Frame#	Time	RASI			RPSI			RTH1			RTH2			RTH3			LTH1			LTH2			LTH3			RTB1			RTB2			RTB3			LTB1			LTB2			LTB3			RCAL			RTOE			RMT5			LCAL			LTOE			LACR			RACR			CLAV			C7			RUA1			RUA2			RUA3			RLEL			RMEL			LUA1			LUA2			LUA3			LLEL			LMEL			RFAsuperior			RFAradius			RFAulna			LFAsuperior			LFAradius			LFAulna			LPSI			LASI		
		X1	Y1	Z1	X2	Y2	Z2	X3	Y3	Z3	X4	Y4	Z4	X5	Y5	Z5	X6	Y6	Z6	X7	Y7	Z7	X8	Y8	Z8	X9	Y9	Z9	X10	Y10	Z10	X11	Y11	Z11	X12	Y12	Z12	X13	Y13	Z13	X14	Y14	Z14	X15	Y15	Z15	X16	Y16	Z16	X17	Y17	Z17	X18	Y18	Z18	X19	Y19	Z19	X20	Y20	Z20	X21	Y21	Z21	X22	Y22	Z22	X23	Y23	Z23	X24	Y24	Z24	X25	Y25	Z25	X26	Y26	Z26	X27	Y27	Z27	X28	Y28	Z28	X29	Y29	Z29	X30	Y30	Z30	X31	Y31	Z31	X32	Y32	Z32	X33	Y33	Z33	X34	Y34	Z34	X35	Y35	Z35	X36	Y36	Z36	X37	Y37	Z37	X38	Y38	Z38	X39	Y39	Z39	X40	Y40	Z40	X41	Y41	Z41	

344	  3.440000	1165.545826	958.722592	-309.804984	1004.214899	1022.215626	-394.122494	1139.140370	798.143603	-251.813952	1207.173657	725.509083	-262.688544	1206.316317	582.758827	-309.439048	1079.559316	809.742269	-620.252289	1100.578496	666.402849	-602.172601	994.781054	577.327140	-601.967588	1325.973110	354.273797	-402.739536	1285.257452	240.509331	-385.114530	1322.678259	185.280046	-456.597553	800.262266	453.030302	-529.576051	749.466431	506.153041	-567.278758	672.146884	506.469989	-511.507839	1214.914691	 91.782206	-484.948991	1448.907585	 93.518200	-472.042287	1441.122508	 56.734270	-398.470190	588.609998	654.717404	-497.700320	499.714715	435.110099	-468.459220	1250.340160	1482.449077	-579.364508	1216.467793	1451.745561	-246.422223	1272.367512	1398.519956	-379.906007	1170.056367	1501.031818	-421.594854	1106.757141	1369.691743	-169.580498	1043.210449	1388.445061	-194.012437	1022.774625	1325.017373	-161.863427	954.893087	1277.554600	-143.820062	938.193856	1278.451290	-236.230389	1193.929642	1384.068120	-670.427201	1108.191302	1346.226484	-673.954504	1141.129306	1272.652318	-710.813398	1116.941487	1211.093695	-736.834922	1065.053937	1195.940893	-660.553066	1027.983619	1226.706925	-145.331263	1165.780651	1141.302086	-205.068325	1121.589478	1088.440196	-186.355827	1189.696231	1160.897462	-713.263397	1317.129754	1109.983243	-599.476793	1301.439809	1047.472429	-632.973083	1014.294732	1022.520570	-489.484813	1185.384541	951.138060	-561.097279	
345	  3.450000	1160.091257	953.819364	-308.481853	999.293313	1018.453284	-395.601564	1130.756535	799.531644	-249.760411	1201.583076	728.402868	-262.397739	1205.232493	584.600019	-304.794260	1082.366834	801.693156	-618.351213	1110.746982	660.886958	-604.038821	1011.198365	565.298055	-605.680725	1310.960252	352.293384	-403.650372	1260.545188	242.598800	-385.202361	1288.619817	184.785709	-458.936321	825.420251	447.328293	-532.290175	775.670934	500.729734	-570.505087	699.322436	504.523343	-514.597084	1169.040520	 96.669440	-486.177532	1404.891066	 82.150239	-477.890974	1395.311467	 50.731901	-402.483537	618.638041	656.107849	-499.871807	527.501160	436.684072	-475.856389	1246.638368	1475.518114	-581.939189	1217.628383	1442.588252	-243.530770	1273.533082	1390.834184	-381.081590	1170.838374	1495.044659	-419.492371	1113.776317	1348.634762	-165.301145	1047.548046	1366.085735	-183.367183	1031.499475	1300.923890	-154.269574	967.335950	1252.283120	-133.611055	946.180446	1252.706568	-224.915841	1183.438241	1376.762432	-670.361282	1096.501345	1340.277885	-670.682650	1126.183160	1265.935114	-707.791075	1099.294984	1206.368650	-734.190999	1051.061939	1190.979996	-656.688064	1042.530430	1204.732828	-138.200459	1182.260292	1128.464545	-204.241172	1141.324152	1073.229163	-184.046239	1170.253327	1151.166846	-714.877493	1299.397975	1088.053742	-610.841502	1278.127490	1028.222199	-646.737412	1010.195555	1017.052700	-490.451061	1182.374746	944.343697	-559.336178	
346	  3.460000	1154.212012	951.941633	-304.857502	994.454439	1015.870522	-398.823237	1123.208799	802.052165	-246.810706	1195.356790	731.262900	-260.592030	1202.053448	586.078108	-300.120298	1085.890577	794.899981	-616.418091	1121.818748	657.943085	-605.132221	1029.876014	555.251226	-608.092049	1292.049501	350.623804	-404.155262	1232.705026	245.685374	-383.154382	1250.912332	185.330217	-458.761261	854.196836	441.018924	-533.485704	804.808622	493.448637	-573.162313	728.937761	499.796348	-517.342362	1121.274984	100.300348	-485.146475	1356.981735	 78.102602	-480.961131	1347.512780	 50.465455	-404.195932	647.866664	653.270000	-503.743760	558.543006	432.707150	-483.055516	1243.587927	1469.909842	-584.396406	1218.076700	1435.118893	-241.102890	1274.228811	1384.910690	-382.530591	1172.063894	1492.254622	-417.802376	1122.400587	1328.457799	-162.783953	1053.727012	1345.387914	-172.002985	1041.737857	1278.014719	-147.667096	982.555362	1227.117072	-124.272664	955.071702	1226.732650	-213.504610	1173.543027	1371.982352	-669.983537	1085.069543	1336.869417	-666.132864	1110.878776	1262.377439	-704.726761	1080.871180	1204.079345	-731.290831	1036.986362	1188.075755	-653.029478	1060.273762	1184.653566	-132.944117	1200.429614	1118.218389	-204.759936	1163.494150	1060.541364	-182.501426	1150.282314	1145.242584	-715.834907	1279.064280	1069.596875	-622.097028	1252.406787	1013.326753	-660.579860	1006.786697	1012.800342	-492.464698	1178.757387	938.667568	-556.821995	
347	  3.470000	1149.523837	953.006225	-300.424714	991.115857	1014.492943	-402.921555	1117.494273	804.197378	-244.356333	1188.295633	731.870564	-258.339606	1193.945281	584.530770	-297.284682	1089.803383	790.485428	-614.860474	1134.650951	657.486865	-605.651516	1051.399015	548.467143	-609.408875	1268.409836	346.111626	-404.052179	1200.884034	245.968289	-380.847606	1210.619024	184.038259	-457.542852	886.136414	434.622845	-533.500012	836.705937	485.249703	-575.183533	760.454022	492.738063	-519.708649	1072.594429	102.959689	-483.297179	1307.831110	 76.513554	-481.403046	1298.998000	 50.623119	-403.857326	675.196000	646.525660	-508.461544	592.421053	423.313831	-490.192230	1240.606536	1466.260147	-586.403309	1218.359355	1429.745986	-240.001430	1274.194935	1381.058053	-384.033760	1172.993248	1491.844713	-416.633044	1132.080772	1312.694719	-162.138577	1061.739263	1328.114258	-162.467232	1053.725357	1258.633602	-142.736685	1000.690869	1203.941941	-116.939294	965.193520	1202.250199	-202.940180	1164.379454	1370.389007	-669.489679	1074.228181	1337.510950	-660.168360	1095.476548	1263.365456	-701.874527	1062.295289	1205.900698	-728.521075	1022.637195	1189.210675	-649.478680	1081.207354	1168.451639	-130.311110	1220.268731	1112.241987	-206.673960	1188.215138	1052.229823	-182.035557	1130.183831	1144.151331	-716.786633	1256.443061	1055.938697	-632.540977	1224.622498	1003.716787	-673.072756	1004.965154	1010.254226	-495.016543	1175.989675	935.165699	-555.457734	
